<svg xmlns="http://www.w3.org/2000/svg" xmlns:xlink="http://www.w3.org/1999/xlink" width="200" zoomAndPan="magnify" viewBox="0 0 150 52.499999" height="70" preserveAspectRatio="xMidYMid meet" version="1.0"><defs><g/><clipPath id="id1"><path d="M 10.414062 9.449219 L 42.8125 9.449219 L 42.8125 42.878906 L 10.414062 42.878906 Z M 10.414062 9.449219 " clip-rule="nonzero"/></clipPath></defs><g fill="#ffffff" fill-opacity="1"><g transform="translate(47.608048, 24.220872)"><g><path d="M 7.921875 0 L 4.03125 0 L 4.03125 -6.984375 L 0.390625 -6.984375 L 0.390625 -9.28125 L 11.5625 -9.28125 L 11.5625 -6.984375 L 7.921875 -6.984375 Z M 7.921875 0 "/></g></g><g transform="translate(59.554155, 24.220872)"><g><path d="M 7.015625 0.203125 C 4.722656 0.203125 3.035156 -0.269531 1.953125 -1.21875 C 0.992188 -2.050781 0.515625 -3.191406 0.515625 -4.640625 C 0.515625 -6.078125 0.992188 -7.21875 1.953125 -8.0625 C 3.035156 -9 4.722656 -9.46875 7.015625 -9.46875 C 9.316406 -9.46875 11.003906 -9 12.078125 -8.0625 C 13.035156 -7.21875 13.515625 -6.078125 13.515625 -4.640625 C 13.515625 -3.191406 13.035156 -2.050781 12.078125 -1.21875 C 11.003906 -0.269531 9.316406 0.203125 7.015625 0.203125 Z M 7.015625 -2.296875 C 7.960938 -2.296875 8.65625 -2.5625 9.09375 -3.09375 C 9.445312 -3.53125 9.625 -4.046875 9.625 -4.640625 C 9.625 -5.234375 9.445312 -5.742188 9.09375 -6.171875 C 8.65625 -6.710938 7.960938 -6.984375 7.015625 -6.984375 C 6.078125 -6.984375 5.382812 -6.710938 4.9375 -6.171875 C 4.582031 -5.742188 4.40625 -5.234375 4.40625 -4.640625 C 4.40625 -4.046875 4.582031 -3.53125 4.9375 -3.09375 C 5.382812 -2.5625 6.078125 -2.296875 7.015625 -2.296875 Z M 7.015625 -2.296875 "/></g></g><g transform="translate(73.596978, 24.220872)"><g><path d="M 7.921875 0 L 4.03125 0 L 4.03125 -6.984375 L 0.390625 -6.984375 L 0.390625 -9.28125 L 11.5625 -9.28125 L 11.5625 -6.984375 L 7.921875 -6.984375 Z M 7.921875 0 "/></g></g><g transform="translate(85.543084, 24.220872)"><g><path d="M 15.59375 0 L 11.640625 0 L 10.765625 -1.515625 L 4.921875 -1.515625 L 4.046875 0 L 0.09375 0 L 6.03125 -9.28125 L 9.65625 -9.28125 Z M 9.453125 -3.8125 L 7.84375 -6.625 L 6.234375 -3.8125 Z M 9.453125 -3.8125 "/></g></g><g transform="translate(101.236101, 24.220872)"><g><path d="M 11.875 0 L 1.03125 0 L 1.03125 -9.28125 L 4.9375 -9.28125 L 4.9375 -2.296875 L 11.875 -2.296875 Z M 11.875 0 "/></g></g><g transform="translate(113.369876, 24.220872)"><g><path d="M 11.875 0 L 1.03125 0 L 1.03125 -9.28125 L 4.9375 -9.28125 L 4.9375 -2.296875 L 11.875 -2.296875 Z M 11.875 0 "/></g></g><g transform="translate(125.503652, 24.220872)"><g><path d="M 9.0625 0 L 5.15625 0 L 5.15625 -4.40625 L 0.09375 -9.28125 L 4.40625 -9.28125 L 7.109375 -6.515625 L 9.796875 -9.28125 L 14.109375 -9.28125 L 9.0625 -4.40625 Z M 9.0625 0 "/></g></g></g><g fill="#ffffff" fill-opacity="1"><g transform="translate(47.608048, 35.696768)"><g><path d="M 14.8125 0 L 10.171875 0 L 4.9375 -6.28125 L 4.9375 0 L 1.03125 0 L 1.03125 -9.28125 L 5.671875 -9.28125 L 10.921875 -3.03125 L 10.921875 -9.28125 L 14.8125 -9.28125 Z M 14.8125 0 "/></g></g><g transform="translate(63.456377, 35.696768)"><g><path d="M 7.015625 0.203125 C 4.722656 0.203125 3.035156 -0.269531 1.953125 -1.21875 C 0.992188 -2.050781 0.515625 -3.191406 0.515625 -4.640625 C 0.515625 -6.078125 0.992188 -7.21875 1.953125 -8.0625 C 3.035156 -9 4.722656 -9.46875 7.015625 -9.46875 C 9.316406 -9.46875 11.003906 -9 12.078125 -8.0625 C 13.035156 -7.21875 13.515625 -6.078125 13.515625 -4.640625 C 13.515625 -3.191406 13.035156 -2.050781 12.078125 -1.21875 C 11.003906 -0.269531 9.316406 0.203125 7.015625 0.203125 Z M 7.015625 -2.296875 C 7.960938 -2.296875 8.65625 -2.5625 9.09375 -3.09375 C 9.445312 -3.53125 9.625 -4.046875 9.625 -4.640625 C 9.625 -5.234375 9.445312 -5.742188 9.09375 -6.171875 C 8.65625 -6.710938 7.960938 -6.984375 7.015625 -6.984375 C 6.078125 -6.984375 5.382812 -6.710938 4.9375 -6.171875 C 4.582031 -5.742188 4.40625 -5.234375 4.40625 -4.640625 C 4.40625 -4.046875 4.582031 -3.53125 4.9375 -3.09375 C 5.382812 -2.5625 6.078125 -2.296875 7.015625 -2.296875 Z M 7.015625 -2.296875 "/></g></g><g transform="translate(77.4992, 35.696768)"><g><path d="M 7.921875 0 L 4.03125 0 L 4.03125 -6.984375 L 0.390625 -6.984375 L 0.390625 -9.28125 L 11.5625 -9.28125 L 11.5625 -6.984375 L 7.921875 -6.984375 Z M 7.921875 0 "/></g></g><g transform="translate(89.445307, 35.696768)"><g><path d="M 6.140625 0.203125 C 4.878906 0.203125 3.863281 0.0664062 3.09375 -0.203125 C 2.332031 -0.472656 1.75 -0.84375 1.34375 -1.3125 C 0.945312 -1.789062 0.675781 -2.335938 0.53125 -2.953125 L 4.671875 -2.953125 C 4.972656 -2.515625 5.460938 -2.296875 6.140625 -2.296875 C 6.804688 -2.296875 7.289062 -2.515625 7.59375 -2.953125 C 7.625 -2.992188 7.640625 -3.03125 7.640625 -3.0625 C 7.640625 -3.175781 7.484375 -3.265625 7.171875 -3.328125 C 6.859375 -3.390625 6.398438 -3.4375 5.796875 -3.46875 C 5.015625 -3.5 4.203125 -3.578125 3.359375 -3.703125 C 1.460938 -3.992188 0.515625 -4.753906 0.515625 -5.984375 C 0.515625 -6.085938 0.519531 -6.203125 0.53125 -6.328125 C 0.675781 -6.941406 0.945312 -7.484375 1.34375 -7.953125 C 1.75 -8.421875 2.332031 -8.789062 3.09375 -9.0625 C 3.863281 -9.332031 4.878906 -9.46875 6.140625 -9.46875 C 7.390625 -9.46875 8.394531 -9.332031 9.15625 -9.0625 C 9.925781 -8.789062 10.507812 -8.421875 10.90625 -7.953125 C 11.3125 -7.484375 11.585938 -6.941406 11.734375 -6.328125 L 7.59375 -6.328125 C 7.289062 -6.765625 6.804688 -6.984375 6.140625 -6.984375 C 5.460938 -6.984375 4.972656 -6.765625 4.671875 -6.328125 C 4.648438 -6.285156 4.640625 -6.25 4.640625 -6.21875 C 4.640625 -6.113281 4.785156 -6.035156 5.078125 -5.984375 C 5.378906 -5.941406 5.816406 -5.898438 6.390625 -5.859375 C 6.960938 -5.828125 7.570312 -5.769531 8.21875 -5.6875 C 8.875 -5.613281 9.484375 -5.476562 10.046875 -5.28125 C 10.617188 -5.09375 11.066406 -4.8125 11.390625 -4.4375 C 11.640625 -4.15625 11.765625 -3.789062 11.765625 -3.34375 C 11.765625 -3.21875 11.753906 -3.085938 11.734375 -2.953125 C 11.585938 -2.335938 11.3125 -1.789062 10.90625 -1.3125 C 10.507812 -0.84375 9.925781 -0.472656 9.15625 -0.203125 C 8.394531 0.0664062 7.390625 0.203125 6.140625 0.203125 Z M 6.140625 0.203125 "/></g></g><g transform="translate(101.727923, 35.696768)"><g><path d="M 15.59375 0 L 11.640625 0 L 10.765625 -1.515625 L 4.921875 -1.515625 L 4.046875 0 L 0.09375 0 L 6.03125 -9.28125 L 9.65625 -9.28125 Z M 9.453125 -3.8125 L 7.84375 -6.625 L 6.234375 -3.8125 Z M 9.453125 -3.8125 "/></g></g><g transform="translate(117.42094, 35.696768)"><g><path d="M 18.6875 0 L 14.796875 0 L 14.796875 -5.921875 L 11.3125 0 L 8.40625 0 L 4.9375 -5.921875 L 4.9375 0 L 1.03125 0 L 1.03125 -9.28125 L 5.65625 -9.28125 L 9.859375 -2.65625 L 14.046875 -9.28125 L 18.6875 -9.28125 Z M 18.6875 0 "/></g></g></g><g clip-path="url(#id1)"><path fill="#ffffff" d="M 41.761719 27.210938 L 39.671875 27.210938 L 39.671875 26.6875 C 39.671875 26.269531 39.511719 25.875 39.214844 25.582031 C 38.773438 25.136719 38.089844 25.027344 37.523438 25.242188 C 37.457031 24.976562 37.320312 24.734375 37.125 24.535156 C 36.683594 24.09375 36 23.984375 35.433594 24.195312 C 35.367188 23.933594 35.230469 23.691406 35.035156 23.492188 C 34.441406 22.898438 33.410156 22.898438 32.816406 23.492188 C 32.621094 23.691406 32.484375 23.933594 32.417969 24.195312 C 31.851562 23.984375 31.167969 24.09375 30.726562 24.535156 C 30.433594 24.828125 30.269531 25.222656 30.269531 25.644531 L 30.269531 27.210938 L 22.953125 27.210938 L 22.953125 25.644531 C 22.953125 25.222656 22.789062 24.828125 22.492188 24.535156 C 22.054688 24.09375 21.371094 23.984375 20.804688 24.195312 C 20.734375 23.933594 20.601562 23.691406 20.402344 23.492188 C 19.8125 22.898438 18.78125 22.898438 18.1875 23.492188 C 17.988281 23.691406 17.855469 23.933594 17.785156 24.195312 C 17.222656 23.984375 16.539062 24.09375 16.097656 24.535156 C 15.898438 24.734375 15.765625 24.976562 15.695312 25.242188 C 15.132812 25.027344 14.449219 25.136719 14.007812 25.582031 C 13.710938 25.875 13.550781 26.269531 13.550781 26.6875 L 13.550781 27.210938 L 11.460938 27.210938 L 11.460938 15.71875 L 41.761719 15.71875 Z M 38.628906 33.382812 L 37.0625 37.5625 L 37.0625 38.703125 L 31.835938 38.703125 L 31.835938 37.441406 L 31.683594 37.285156 C 31 36.601562 29.222656 34.492188 29.222656 32.96875 L 29.222656 30.34375 C 29.222656 30.203125 29.277344 30.074219 29.378906 29.976562 C 29.574219 29.777344 29.917969 29.777344 30.113281 29.976562 C 30.214844 30.074219 30.269531 30.203125 30.269531 30.34375 L 30.269531 32.433594 L 31.3125 32.433594 L 31.3125 25.644531 C 31.3125 25.503906 31.367188 25.371094 31.46875 25.273438 C 31.664062 25.074219 32.007812 25.074219 32.203125 25.273438 C 32.304688 25.371094 32.359375 25.503906 32.359375 25.644531 L 32.359375 29.820312 L 33.402344 29.820312 L 33.402344 24.597656 C 33.402344 24.457031 33.457031 24.328125 33.558594 24.226562 C 33.753906 24.03125 34.097656 24.03125 34.292969 24.226562 C 34.394531 24.328125 34.449219 24.457031 34.449219 24.597656 L 34.449219 29.820312 L 35.492188 29.820312 L 35.492188 25.644531 C 35.492188 25.503906 35.546875 25.371094 35.648438 25.273438 C 35.84375 25.074219 36.1875 25.074219 36.382812 25.273438 C 36.484375 25.371094 36.539062 25.503906 36.539062 25.644531 L 36.539062 29.820312 L 37.582031 29.820312 L 37.582031 26.6875 C 37.582031 26.546875 37.636719 26.417969 37.738281 26.316406 C 37.933594 26.121094 38.277344 26.121094 38.472656 26.316406 C 38.574219 26.417969 38.628906 26.546875 38.628906 26.6875 Z M 23.105469 29.976562 C 23.304688 29.777344 23.648438 29.777344 23.84375 29.976562 C 23.945312 30.074219 24 30.203125 24 30.34375 L 24 32.96875 C 24 34.492188 22.222656 36.601562 21.539062 37.285156 L 21.386719 37.441406 L 21.386719 38.703125 L 16.160156 38.703125 L 16.160156 37.5625 L 14.59375 33.382812 L 14.59375 26.6875 C 14.59375 26.546875 14.648438 26.417969 14.75 26.320312 C 14.945312 26.121094 15.289062 26.121094 15.484375 26.320312 C 15.585938 26.417969 15.640625 26.546875 15.640625 26.6875 L 15.640625 29.820312 L 16.683594 29.820312 L 16.683594 25.644531 C 16.683594 25.503906 16.738281 25.371094 16.839844 25.273438 C 17.035156 25.074219 17.378906 25.074219 17.574219 25.273438 C 17.675781 25.371094 17.730469 25.503906 17.730469 25.644531 L 17.730469 29.820312 L 18.773438 29.820312 L 18.773438 24.597656 C 18.773438 24.457031 18.828125 24.328125 18.929688 24.230469 C 19.125 24.03125 19.46875 24.03125 19.664062 24.230469 C 19.765625 24.328125 19.820312 24.457031 19.820312 24.597656 L 19.820312 29.820312 L 20.863281 29.820312 L 20.863281 25.644531 C 20.863281 25.503906 20.917969 25.371094 21.019531 25.273438 C 21.214844 25.074219 21.558594 25.074219 21.753906 25.273438 C 21.855469 25.371094 21.910156 25.503906 21.910156 25.644531 L 21.910156 32.433594 L 22.953125 32.433594 L 22.953125 30.34375 C 22.953125 30.203125 23.007812 30.074219 23.105469 29.976562 Z M 42.503906 14.980469 C 42.304688 14.78125 42.042969 14.671875 41.761719 14.671875 L 27.132812 14.671875 L 27.132812 14.152344 C 27.132812 13.730469 26.96875 13.335938 26.671875 13.042969 C 26.378906 12.746094 25.984375 12.582031 25.566406 12.582031 L 22.429688 12.582031 C 22.292969 12.582031 22.160156 12.53125 22.0625 12.429688 C 21.960938 12.332031 21.910156 12.199219 21.910156 12.0625 C 21.910156 11.921875 21.960938 11.789062 22.0625 11.691406 C 22.160156 11.59375 22.292969 11.539062 22.429688 11.539062 L 28.699219 11.539062 C 29.121094 11.539062 29.515625 11.375 29.8125 11.078125 C 30.105469 10.785156 30.269531 10.390625 30.269531 9.972656 L 30.269531 9.449219 L 29.222656 9.449219 L 29.222656 9.972656 C 29.222656 10.109375 29.171875 10.242188 29.070312 10.34375 C 28.972656 10.441406 28.839844 10.492188 28.699219 10.492188 L 22.429688 10.492188 C 22.011719 10.492188 21.617188 10.65625 21.324219 10.953125 C 21.027344 11.246094 20.863281 11.644531 20.863281 12.0625 C 20.863281 12.480469 21.027344 12.875 21.324219 13.167969 C 21.617188 13.464844 22.011719 13.628906 22.429688 13.628906 L 25.566406 13.628906 C 25.707031 13.628906 25.835938 13.679688 25.933594 13.78125 C 26.035156 13.878906 26.089844 14.011719 26.089844 14.152344 L 26.089844 14.671875 L 11.460938 14.671875 C 11.179688 14.671875 10.917969 14.78125 10.71875 14.980469 C 10.523438 15.175781 10.414062 15.4375 10.414062 15.71875 L 10.414062 27.210938 C 10.414062 27.488281 10.523438 27.75 10.71875 27.949219 C 10.914062 28.144531 11.179688 28.253906 11.460938 28.253906 L 13.550781 28.253906 L 13.550781 33.574219 L 15.117188 37.753906 L 15.117188 38.847656 C 15.039062 38.890625 14.964844 38.945312 14.898438 39.011719 C 14.703125 39.207031 14.59375 39.46875 14.59375 39.746094 L 14.59375 42.878906 L 15.640625 42.878906 L 15.640625 39.746094 L 21.910156 39.746094 L 21.910156 42.878906 L 22.953125 42.878906 L 22.953125 39.746094 C 22.953125 39.46875 22.84375 39.207031 22.648438 39.007812 C 22.582031 38.941406 22.507812 38.890625 22.429688 38.84375 L 22.429688 37.867188 C 23.015625 37.246094 25.042969 34.949219 25.042969 32.96875 L 25.042969 30.34375 C 25.042969 29.925781 24.878906 29.53125 24.582031 29.234375 C 24.160156 28.808594 23.507812 28.695312 22.953125 28.882812 L 22.953125 28.253906 L 30.269531 28.253906 L 30.269531 28.882812 C 29.714844 28.695312 29.0625 28.808594 28.640625 29.238281 C 28.34375 29.53125 28.179688 29.925781 28.179688 30.34375 L 28.179688 32.96875 C 28.179688 34.949219 30.207031 37.246094 30.792969 37.867188 L 30.792969 38.84375 C 30.714844 38.890625 30.640625 38.941406 30.574219 39.007812 C 30.378906 39.207031 30.269531 39.46875 30.269531 39.746094 L 30.269531 42.878906 L 31.3125 42.878906 L 31.3125 39.746094 L 37.582031 39.746094 L 37.582031 42.878906 L 38.628906 42.878906 L 38.628906 39.746094 C 38.628906 39.46875 38.519531 39.207031 38.324219 39.007812 C 38.257812 38.941406 38.183594 38.890625 38.105469 38.84375 L 38.105469 37.753906 L 39.671875 33.574219 L 39.671875 28.253906 L 41.761719 28.253906 C 42.042969 28.253906 42.308594 28.144531 42.503906 27.949219 C 42.699219 27.753906 42.808594 27.488281 42.808594 27.210938 L 42.808594 15.71875 C 42.808594 15.4375 42.699219 15.175781 42.503906 14.980469 " fill-opacity="1" fill-rule="nonzero"/></g><path fill="#ffffff" d="M 13.550781 16.761719 L 14.59375 16.761719 L 14.59375 17.808594 L 13.550781 17.808594 L 13.550781 16.761719 " fill-opacity="1" fill-rule="nonzero"/><path fill="#ffffff" d="M 15.640625 16.761719 L 16.683594 16.761719 L 16.683594 17.808594 L 15.640625 17.808594 L 15.640625 16.761719 " fill-opacity="1" fill-rule="nonzero"/><path fill="#ffffff" d="M 17.730469 16.761719 L 18.773438 16.761719 L 18.773438 17.808594 L 17.730469 17.808594 L 17.730469 16.761719 " fill-opacity="1" fill-rule="nonzero"/><path fill="#ffffff" d="M 19.820312 16.761719 L 20.863281 16.761719 L 20.863281 17.808594 L 19.820312 17.808594 L 19.820312 16.761719 " fill-opacity="1" fill-rule="nonzero"/><path fill="#ffffff" d="M 21.910156 16.761719 L 22.953125 16.761719 L 22.953125 17.808594 L 21.910156 17.808594 L 21.910156 16.761719 " fill-opacity="1" fill-rule="nonzero"/><path fill="#ffffff" d="M 24 16.761719 L 25.042969 16.761719 L 25.042969 17.808594 L 24 17.808594 L 24 16.761719 " fill-opacity="1" fill-rule="nonzero"/><path fill="#ffffff" d="M 26.089844 16.761719 L 27.132812 16.761719 L 27.132812 17.808594 L 26.089844 17.808594 L 26.089844 16.761719 " fill-opacity="1" fill-rule="nonzero"/><path fill="#ffffff" d="M 28.179688 16.761719 L 29.222656 16.761719 L 29.222656 17.808594 L 28.179688 17.808594 L 28.179688 16.761719 " fill-opacity="1" fill-rule="nonzero"/><path fill="#ffffff" d="M 30.269531 16.761719 L 31.3125 16.761719 L 31.3125 17.808594 L 30.269531 17.808594 L 30.269531 16.761719 " fill-opacity="1" fill-rule="nonzero"/><path fill="#ffffff" d="M 32.359375 16.761719 L 33.402344 16.761719 L 33.402344 17.808594 L 32.359375 17.808594 L 32.359375 16.761719 " fill-opacity="1" fill-rule="nonzero"/><path fill="#ffffff" d="M 34.449219 16.761719 L 35.492188 16.761719 L 35.492188 17.808594 L 34.449219 17.808594 L 34.449219 16.761719 " fill-opacity="1" fill-rule="nonzero"/><path fill="#ffffff" d="M 36.539062 16.761719 L 37.582031 16.761719 L 37.582031 17.808594 L 36.539062 17.808594 L 36.539062 16.761719 " fill-opacity="1" fill-rule="nonzero"/><path fill="#ffffff" d="M 38.628906 16.761719 L 39.671875 16.761719 L 39.671875 17.808594 L 38.628906 17.808594 L 38.628906 16.761719 " fill-opacity="1" fill-rule="nonzero"/><path fill="#ffffff" d="M 12.503906 18.851562 L 13.550781 18.851562 L 13.550781 19.898438 L 12.503906 19.898438 L 12.503906 18.851562 " fill-opacity="1" fill-rule="nonzero"/><path fill="#ffffff" d="M 14.59375 18.851562 L 15.640625 18.851562 L 15.640625 19.898438 L 14.59375 19.898438 L 14.59375 18.851562 " fill-opacity="1" fill-rule="nonzero"/><path fill="#ffffff" d="M 16.683594 18.851562 L 17.730469 18.851562 L 17.730469 19.898438 L 16.683594 19.898438 L 16.683594 18.851562 " fill-opacity="1" fill-rule="nonzero"/><path fill="#ffffff" d="M 18.773438 18.851562 L 19.820312 18.851562 L 19.820312 19.898438 L 18.773438 19.898438 L 18.773438 18.851562 " fill-opacity="1" fill-rule="nonzero"/><path fill="#ffffff" d="M 20.863281 18.851562 L 21.910156 18.851562 L 21.910156 19.898438 L 20.863281 19.898438 L 20.863281 18.851562 " fill-opacity="1" fill-rule="nonzero"/><path fill="#ffffff" d="M 22.953125 18.851562 L 24 18.851562 L 24 19.898438 L 22.953125 19.898438 L 22.953125 18.851562 " fill-opacity="1" fill-rule="nonzero"/><path fill="#ffffff" d="M 25.042969 18.851562 L 26.089844 18.851562 L 26.089844 19.898438 L 25.042969 19.898438 L 25.042969 18.851562 " fill-opacity="1" fill-rule="nonzero"/><path fill="#ffffff" d="M 27.132812 18.851562 L 28.179688 18.851562 L 28.179688 19.898438 L 27.132812 19.898438 L 27.132812 18.851562 " fill-opacity="1" fill-rule="nonzero"/><path fill="#ffffff" d="M 29.222656 18.851562 L 30.269531 18.851562 L 30.269531 19.898438 L 29.222656 19.898438 L 29.222656 18.851562 " fill-opacity="1" fill-rule="nonzero"/><path fill="#ffffff" d="M 31.3125 18.851562 L 32.359375 18.851562 L 32.359375 19.898438 L 31.3125 19.898438 L 31.3125 18.851562 " fill-opacity="1" fill-rule="nonzero"/><path fill="#ffffff" d="M 33.402344 18.851562 L 34.449219 18.851562 L 34.449219 19.898438 L 33.402344 19.898438 L 33.402344 18.851562 " fill-opacity="1" fill-rule="nonzero"/><path fill="#ffffff" d="M 35.492188 18.851562 L 36.539062 18.851562 L 36.539062 19.898438 L 35.492188 19.898438 L 35.492188 18.851562 " fill-opacity="1" fill-rule="nonzero"/><path fill="#ffffff" d="M 37.582031 18.851562 L 38.628906 18.851562 L 38.628906 19.898438 L 37.582031 19.898438 L 37.582031 18.851562 " fill-opacity="1" fill-rule="nonzero"/><path fill="#ffffff" d="M 39.671875 18.851562 L 40.71875 18.851562 L 40.71875 19.898438 L 39.671875 19.898438 L 39.671875 18.851562 " fill-opacity="1" fill-rule="nonzero"/><path fill="#ffffff" d="M 13.550781 20.941406 L 14.59375 20.941406 L 14.59375 21.984375 L 13.550781 21.984375 L 13.550781 20.941406 " fill-opacity="1" fill-rule="nonzero"/><path fill="#ffffff" d="M 15.640625 20.941406 L 16.683594 20.941406 L 16.683594 21.984375 L 15.640625 21.984375 L 15.640625 20.941406 " fill-opacity="1" fill-rule="nonzero"/><path fill="#ffffff" d="M 17.730469 20.941406 L 18.773438 20.941406 L 18.773438 21.984375 L 17.730469 21.984375 L 17.730469 20.941406 " fill-opacity="1" fill-rule="nonzero"/><path fill="#ffffff" d="M 19.820312 20.941406 L 20.863281 20.941406 L 20.863281 21.984375 L 19.820312 21.984375 L 19.820312 20.941406 " fill-opacity="1" fill-rule="nonzero"/><path fill="#ffffff" d="M 21.910156 20.941406 L 22.953125 20.941406 L 22.953125 21.984375 L 21.910156 21.984375 L 21.910156 20.941406 " fill-opacity="1" fill-rule="nonzero"/><path fill="#ffffff" d="M 24 20.941406 L 25.042969 20.941406 L 25.042969 21.984375 L 24 21.984375 L 24 20.941406 " fill-opacity="1" fill-rule="nonzero"/><path fill="#ffffff" d="M 26.089844 20.941406 L 27.132812 20.941406 L 27.132812 21.984375 L 26.089844 21.984375 L 26.089844 20.941406 " fill-opacity="1" fill-rule="nonzero"/><path fill="#ffffff" d="M 28.179688 20.941406 L 29.222656 20.941406 L 29.222656 21.984375 L 28.179688 21.984375 L 28.179688 20.941406 " fill-opacity="1" fill-rule="nonzero"/><path fill="#ffffff" d="M 30.269531 20.941406 L 31.3125 20.941406 L 31.3125 21.984375 L 30.269531 21.984375 L 30.269531 20.941406 " fill-opacity="1" fill-rule="nonzero"/><path fill="#ffffff" d="M 32.359375 20.941406 L 33.402344 20.941406 L 33.402344 21.984375 L 32.359375 21.984375 L 32.359375 20.941406 " fill-opacity="1" fill-rule="nonzero"/><path fill="#ffffff" d="M 34.449219 20.941406 L 35.492188 20.941406 L 35.492188 21.984375 L 34.449219 21.984375 L 34.449219 20.941406 " fill-opacity="1" fill-rule="nonzero"/><path fill="#ffffff" d="M 36.539062 20.941406 L 37.582031 20.941406 L 37.582031 21.984375 L 36.539062 21.984375 L 36.539062 20.941406 " fill-opacity="1" fill-rule="nonzero"/><path fill="#ffffff" d="M 38.628906 20.941406 L 39.671875 20.941406 L 39.671875 21.984375 L 38.628906 21.984375 L 38.628906 20.941406 " fill-opacity="1" fill-rule="nonzero"/><path fill="#ffffff" d="M 12.503906 23.03125 L 13.550781 23.03125 L 13.550781 24.074219 L 12.503906 24.074219 L 12.503906 23.03125 " fill-opacity="1" fill-rule="nonzero"/><path fill="#ffffff" d="M 14.59375 23.03125 L 15.640625 23.03125 L 15.640625 24.074219 L 14.59375 24.074219 L 14.59375 23.03125 " fill-opacity="1" fill-rule="nonzero"/><path fill="#ffffff" d="M 22.953125 23.03125 L 24 23.03125 L 24 24.074219 L 22.953125 24.074219 L 22.953125 23.03125 " fill-opacity="1" fill-rule="nonzero"/><path fill="#ffffff" d="M 25.042969 23.03125 L 26.089844 23.03125 L 26.089844 24.074219 L 25.042969 24.074219 L 25.042969 23.03125 " fill-opacity="1" fill-rule="nonzero"/><path fill="#ffffff" d="M 27.132812 23.03125 L 28.179688 23.03125 L 28.179688 24.074219 L 27.132812 24.074219 L 27.132812 23.03125 " fill-opacity="1" fill-rule="nonzero"/><path fill="#ffffff" d="M 29.222656 23.03125 L 30.269531 23.03125 L 30.269531 24.074219 L 29.222656 24.074219 L 29.222656 23.03125 " fill-opacity="1" fill-rule="nonzero"/><path fill="#ffffff" d="M 37.582031 23.03125 L 38.628906 23.03125 L 38.628906 24.074219 L 37.582031 24.074219 L 37.582031 23.03125 " fill-opacity="1" fill-rule="nonzero"/><path fill="#ffffff" d="M 39.671875 23.03125 L 40.71875 23.03125 L 40.71875 24.074219 L 39.671875 24.074219 L 39.671875 23.03125 " fill-opacity="1" fill-rule="nonzero"/><path fill="#ffffff" d="M 24 25.121094 L 29.222656 25.121094 L 29.222656 26.164062 L 24 26.164062 L 24 25.121094 " fill-opacity="1" fill-rule="nonzero"/></svg>